Genre:Horror | Thriller
Language: English  http://www.imdb.com/title/tt1320244/
Source:1080p.Bluray.x264-CBGB
Subtitles:Romana


Format : Matroska
File size : 1.60 GiB
Duration : 1h 27mn
Overall bit rate : 2 622 Kbps


Video
Format settings, CABAC : Yes
Format settings, ReFrames : 4 frames
Codec ID : V_MPEG4/ISO/AVC
Duration : 1h 27mn
Bit rate : 2 185 Kbps
Nominal bit rate : 2 300 Kbps
Width : 1 280 pixels
Height : 720 pixels
Display aspect ratio : 16:9
Frame rate mode : Variable
Frame rate : 23.976 fps
Color space : YUV
Chroma subsampling : 4:2:0
Bit depth : 8 bits
Scan type : Progressive
Bits/(Pixel*Frame) : 0.099
Stream size : 1.34 GiB (83%)
Writing library : x264


Audio
ID : 2
Format : AC-3
Format/Info : Audio Coding 3
Mode extension : CM (complete main)
Codec ID : A_AC3
Duration : 1h 27mn
Bit rate mode : Constant
Bit rate : 384 Kbps
Channel(s) : 6 channels
Channel positions : Front: L C R, Side: L R, LFE
Sampling rate : 48.0 KHz
Bit depth : 16 bits
Video delay : -1mn 5s
Stream size : 241 MiB (15%)
Language : English



Plot
A troubled evangelical minister agrees to let his last exorcism be filmed by a documentary crew

